<?xml version="1.0" standalone="no"?>
<!DOCTYPE svg PUBLIC "-//W3C//DTD SVG 20010904//EN"
 "http://www.w3.org/TR/2001/REC-SVG-20010904/DTD/svg10.dtd">
<svg version="1.0" xmlns="http://www.w3.org/2000/svg"
 width="302.000000pt" height="302.000000pt" viewBox="0 0 302.000000 302.000000"
 preserveAspectRatio="xMidYMid meet">
<metadata>
Created by potrace 1.11, written by Peter Selinger 2001-2013
</metadata>
<g transform="translate(0.000000,302.000000) scale(0.100000,-0.100000)"
fill="#000000" stroke="none">
<path d="M1355 3014 c-159 -18 -342 -69 -494 -140 -288 -135 -556 -396 -701
-684 -51 -102 -105 -259 -132 -384 -31 -147 -31 -437 0 -582 62 -288 187 -530
379 -733 249 -265 576 -429 941 -472 286 -34 718 52 749 150 3 9 7 22 9 30 3
11 12 7 34 -14 l29 -27 73 42 c246 141 460 358 581 589 26 49 47 94 47 101 0
8 7 21 15 29 20 23 87 229 89 272 0 31 -9 47 -63 108 l-64 73 26 21 c15 12 52
42 82 67 l56 45 -5 110 c-33 655 -541 1235 -1204 1375 -95 20 -353 34 -447 24z
m126 -323 l29 -29 0 -1022 0 -1022 -31 -30 -30 -31 -295 7 c-325 8 -362 13
-484 73 -103 50 -213 159 -264 263 -110 223 -71 484 97 666 72 76 143 124 245
162 57 21 89 26 214 30 81 2 159 1 173 -2 76 -19 102 -121 46 -177 -29 -29
-31 -29 -145 -29 -63 0 -139 -5 -168 -11 -120 -25 -225 -108 -276 -217 -24
-50 -27 -70 -27 -157 0 -87 3 -107 27 -157 52 -112 159 -195 282 -217 33 -6
142 -11 243 -11 l183 0 0 931 c0 665 3 937 11 952 19 38 51 57 97 57 35 0 49
-6 73 -29z m894 -936 c161 -42 275 -188 275 -351 0 -59 -3 -68 -29 -95 -24
-23 -38 -29 -75 -29 -68 0 -96 29 -107 111 -10 70 -28 102 -79 137 -32 21 -42
22 -246 22 l-214 0 0 -456 0 -456 -34 -34 c-27 -27 -42 -34 -74 -34 -50 0 -88
29 -102 78 -8 25 -10 199 -8 542 3 553 2 538 63 566 46 21 550 19 630 -1z"/>
</g>
</svg>
